<?xml version="1.0" encoding="utf-8"?>
<!-- Generator: Adobe Illustrator 16.0.2, SVG Export Plug-In . SVG Version: 6.00 Build 0)  -->
<!DOCTYPE svg PUBLIC "-//W3C//DTD SVG 1.1//EN" "http://www.w3.org/Graphics/SVG/1.1/DTD/svg11.dtd">
<svg version="1.1" id="master-artboard" xmlns="http://www.w3.org/2000/svg" xmlns:xlink="http://www.w3.org/1999/xlink" x="0px"
	 y="0px" width="2340px" height="1560px" viewBox="0 0 2340 1560" enable-background="new 0 0 2340 1560" xml:space="preserve">
<linearGradient id="SVGID_1_" gradientUnits="userSpaceOnUse" x1="863.3511" y1="1179.3564" x2="863.3511" y2="1178.3564" gradientTransform="matrix(347.6557 -214.5549 -143.6324 -232.7361 -129687.4063 460355.5)">
	<stop  offset="0" style="stop-color:#FFDC17"/>
	<stop  offset="1" style="stop-color:#00B0A4"/>
</linearGradient>
<path fill="url(#SVGID_1_)" d="M1353.653,777.586l-149.519-258.973c-15.913-24.085-35.041-77.944-62.826-28.104L969.527,788.045
	c-10.858,18.805,2.922,58.37,24.421,58.37l147.347-255.212l0,0c26.791-49.862,46.383,1.127,62.912,28.208l101.999,176.669h-20.335
	c-20.334,0-30.63-4.813-40.779-14.964l-48.029-48.028c-18.078-18.079-27.634-20.585-40.218-20.585h-16.088
	c-24.8,0-29.766,36.2-44.772,50.336h34.86c22.896,0,30.499,5.716,45.336,20.553l46.824,46.825
	c13.717,13.715,26.878,16.198,50.283,16.198h100.977C1374.266,825.99,1374.266,811.813,1353.653,777.586z"/>
<path fill="#109C69" d="M854.817,975.641l28.32-81.971l-11.08-1.06v-14.24h40.28l35.88,101.49h0.18l10.03,0.53v14.949h-45.391
	v-14.25l6.69-0.529c1.993-0.233,3.34-0.7,4.04-1.4c0.707-0.707,0.767-1.996,0.18-3.87l-3.689-10.91h-41.16l-5.28,15.48l10.55,0.53
	v14.949h-40.63v-14.25l5.8-0.529C852.004,980.327,853.765,978.687,854.817,975.641 M899.678,898.07l-16.36,50.13h32.71l-15.83-50.13
	H899.678z M978.217,899.301l23.57,70.89h0.88l24.62-76.17l-10.73-0.7v-14.95h40.46v14.24l-5.81,0.53
	c-1.521,0.119-2.634,0.56-3.34,1.319c-0.7,0.761-1.403,2.08-2.11,3.96l-33.24,96.92h-22.87l-35.88-101.489l-10.029-0.53v-14.95
	h45.38v14.24l-5.801,0.53c-3.64,0.233-5.46,1.64-5.46,4.22C977.856,897.947,977.977,898.594,978.217,899.301z M1056.927,975.641
	l28.32-81.971l-11.08-1.06v-14.24h40.28l35.88,101.49h0.18l10.03,0.53v14.949h-45.391v-14.25l6.69-0.529
	c1.993-0.233,3.34-0.7,4.04-1.4c0.707-0.707,0.767-1.996,0.18-3.87l-3.689-10.91h-41.16l-5.28,15.48l10.55,0.53v14.949h-40.63
	v-14.25l5.8-0.529C1054.113,980.327,1055.873,978.687,1056.927,975.641 M1101.787,898.07l-16.36,50.13h32.71l-15.83-50.13H1101.787z
	 M1168.187,995.34v-14.25l6.33-0.529c3.046-0.233,4.569-1.874,4.569-4.92v-81.79l-10.02-0.53v-14.95h31.66l49.779,80.73h0.351
	v-65.25l-11.61-0.53v-14.95h42.92v14.24l-6.33,0.53c-2.813,0.233-4.22,2.05-4.22,5.449v96.75h-20.58l-50.84-81.97h-0.35v66.49
	l11.43,0.53v14.949H1168.187z M1369.851,892.61l-53.65,86.02h34.13c2.934,0,4.4-1.876,4.4-5.63v-12.31l17.939,1.229v33.42h-80.92
	v-14.6l53.131-85.66h-29.2c-3.167,0-4.75,1.816-4.75,5.45v7.04l-17.94-1.24v-27.96h76.86V892.61z M1392.809,975.641l28.32-81.971
	l-11.08-1.06v-14.24h40.279l35.881,101.49h0.18l10.029,0.53v14.949h-45.39v-14.25l6.69-0.529c1.993-0.233,3.34-0.7,4.04-1.4
	c0.706-0.707,0.767-1.996,0.18-3.87l-3.69-10.91h-41.159l-5.28,15.48l10.55,0.53v14.949h-40.63v-14.25l5.8-0.529
	C1389.995,980.327,1391.755,978.687,1392.809,975.641 M1437.668,898.07l-16.359,50.13h32.71l-15.83-50.13H1437.668z"/>
<path fill="#083B1E" d="M870.836,1064.086c0,4.05-0.685,7.593-2.055,10.63c-1.369,2.978-3.305,5.271-5.807,6.879
	c-2.501,1.548-5.389,2.322-8.664,2.322s-6.164-0.774-8.665-2.322c-2.501-1.608-4.467-3.901-5.896-6.879
	c-1.37-2.918-2.085-6.342-2.145-10.272v-2.948c0-3.99,0.715-7.503,2.145-10.541c1.369-3.037,3.305-5.359,5.806-6.967
	c2.502-1.608,5.39-2.412,8.665-2.412s6.193,0.804,8.754,2.412c2.502,1.607,4.438,3.93,5.807,6.967
	c1.37,2.979,2.055,6.491,2.055,10.541V1064.086 M865.387,1061.406c0-4.884-0.982-8.636-2.947-11.256
	c-1.966-2.62-4.705-3.931-8.219-3.931c-3.454,0-6.163,1.311-8.129,3.931c-1.965,2.62-2.978,6.253-3.037,10.898v3.037
	c0,4.764,0.982,8.486,2.948,11.166c2.024,2.739,4.794,4.109,8.308,4.109c3.454,0,6.163-1.28,8.129-3.842
	c1.905-2.561,2.888-6.223,2.947-10.987V1061.406z M894.087,1066.677h-9.736v16.704h-5.449v-41.27h13.667
	c4.646,0,8.219,1.071,10.72,3.216c2.501,2.084,3.752,5.151,3.752,9.2c0,2.562-0.685,4.794-2.055,6.7
	c-1.43,1.905-3.364,3.335-5.807,4.287l9.647,17.509v0.357h-5.806L894.087,1066.677 M884.351,1062.21h8.396
	c2.68,0,4.824-0.685,6.432-2.055c1.608-1.369,2.412-3.245,2.412-5.628c0-2.561-0.774-4.496-2.322-5.806
	c-1.489-1.37-3.663-2.085-6.521-2.145h-8.396V1062.21z M920.501,1083.381h-5.449v-41.27h5.449V1083.381z M953.691,1064.354h-17.866
	v14.561h20.813v4.467h-26.173v-41.27h25.905v4.466h-20.546v13.311h17.866V1064.354z M995.046,1083.381h-5.449l-20.724-31.801v31.801
	h-5.449v-41.27h5.449l20.813,31.979v-31.979h5.359V1083.381z M1032.437,1046.577h-13.31v36.804h-5.359v-36.804h-13.221v-4.466h31.89
	V1046.577z M1058.994,1072.661h-17.241l-3.841,10.72h-5.628l15.722-41.27h4.734l15.812,41.27h-5.538L1058.994,1072.661
	 M1043.361,1068.105h14.024l-6.968-19.205L1043.361,1068.105z M1105.754,1083.381h-5.449l-20.724-31.801v31.801h-5.449v-41.27h5.449
	l20.813,31.979v-31.979h5.359V1083.381z M1115.471,1083.381v-41.27h11.612c3.573,0,6.729,0.804,9.469,2.411
	c2.8,1.608,4.943,3.871,6.433,6.789c1.488,2.918,2.232,6.283,2.232,10.095v2.59c0,3.871-0.744,7.296-2.232,10.273
	c-1.489,2.918-3.633,5.151-6.433,6.699c-2.799,1.549-6.044,2.353-9.736,2.412H1115.471 M1120.83,1046.577v32.337h5.717
	c4.229,0,7.504-1.31,9.826-3.93c2.323-2.562,3.484-6.253,3.484-11.077v-2.412c0-4.704-1.102-8.337-3.306-10.897
	c-2.203-2.621-5.329-3.961-9.379-4.021H1120.83z M1185.208,1064.086c0,4.05-0.685,7.593-2.055,10.63
	c-1.369,2.978-3.305,5.271-5.806,6.879c-2.502,1.548-5.39,2.322-8.665,2.322s-6.164-0.774-8.665-2.322
	c-2.501-1.608-4.467-3.901-5.896-6.879c-1.37-2.918-2.085-6.342-2.144-10.272v-2.948c0-3.99,0.714-7.503,2.144-10.541
	c1.369-3.037,3.305-5.359,5.806-6.967c2.502-1.608,5.39-2.412,8.665-2.412s6.193,0.804,8.755,2.412
	c2.501,1.607,4.437,3.93,5.806,6.967c1.37,2.979,2.055,6.491,2.055,10.541V1064.086 M1179.759,1061.406
	c0-4.884-0.982-8.636-2.947-11.256c-1.966-2.62-4.705-3.931-8.219-3.931c-3.454,0-6.163,1.311-8.129,3.931
	c-1.965,2.62-2.978,6.253-3.037,10.898v3.037c0,4.764,0.983,8.486,2.948,11.166c2.024,2.739,4.794,4.109,8.308,4.109
	c3.454,0,6.163-1.28,8.129-3.842c1.905-2.561,2.888-6.223,2.947-10.987V1061.406z M1236.214,1046.577h-13.31v36.804h-5.36v-36.804
	h-13.22v-4.466h31.89V1046.577z M1271.35,1042.111v28.049c-0.06,3.931-1.31,7.116-3.752,9.559c-2.382,2.501-5.657,3.9-9.826,4.198
	h-1.429c-4.526,0-8.129-1.221-10.809-3.663c-2.68-2.382-4.05-5.717-4.109-10.004v-28.139h5.449v27.96c0,2.978,0.804,5.3,2.412,6.967
	c1.667,1.668,4.02,2.502,7.057,2.502c3.097,0,5.449-0.834,7.057-2.502c1.608-1.667,2.412-3.989,2.412-6.967v-27.96H1271.35z
	 M1316.964,1065.158h-17.329v18.223h-5.36v-41.27h25.548v4.466h-20.188v14.114h17.329V1065.158z M1355.357,1042.111v28.049
	c-0.059,3.931-1.31,7.116-3.751,9.559c-2.382,2.501-5.657,3.9-9.826,4.198h-1.43c-4.525,0-8.129-1.221-10.809-3.663
	c-2.68-2.382-4.05-5.717-4.109-10.004v-28.139h5.449v27.96c0,2.978,0.804,5.3,2.412,6.967c1.667,1.668,4.02,2.502,7.057,2.502
	c3.097,0,5.449-0.834,7.058-2.502c1.607-1.667,2.411-3.989,2.411-6.967v-27.96H1355.357z M1392.423,1046.577h-13.31v36.804h-5.359
	v-36.804h-13.221v-4.466h31.89V1046.577z M1427.559,1042.111v28.049c-0.059,3.931-1.31,7.116-3.751,9.559
	c-2.382,2.501-5.657,3.9-9.826,4.198h-1.43c-4.526,0-8.129-1.221-10.809-3.663c-2.68-2.382-4.05-5.717-4.109-10.004v-28.139h5.449
	v27.96c0,2.978,0.804,5.3,2.412,6.967c1.667,1.668,4.02,2.502,7.057,2.502c3.097,0,5.449-0.834,7.058-2.502
	c1.607-1.667,2.411-3.989,2.411-6.967v-27.96H1427.559z M1451.225,1066.677h-9.736v16.704h-5.449v-41.27h13.667
	c4.646,0,8.219,1.071,10.72,3.216c2.501,2.084,3.752,5.151,3.752,9.2c0,2.562-0.685,4.794-2.055,6.7
	c-1.43,1.905-3.364,3.335-5.807,4.287l9.647,17.509v0.357h-5.806L1451.225,1066.677 M1441.488,1062.21h8.396
	c2.68,0,4.824-0.685,6.432-2.055c1.608-1.369,2.412-3.245,2.412-5.628c0-2.561-0.774-4.496-2.322-5.806
	c-1.489-1.37-3.662-2.085-6.521-2.145h-8.396V1062.21z M1503.544,1064.086c0,4.05-0.685,7.593-2.054,10.63
	c-1.37,2.978-3.306,5.271-5.807,6.879c-2.502,1.548-5.39,2.322-8.665,2.322s-6.164-0.774-8.665-2.322
	c-2.501-1.608-4.467-3.901-5.896-6.879c-1.37-2.918-2.085-6.342-2.144-10.272v-2.948c0-3.99,0.714-7.503,2.144-10.541
	c1.37-3.037,3.306-5.359,5.807-6.967c2.501-1.608,5.39-2.412,8.665-2.412s6.193,0.804,8.754,2.412
	c2.501,1.607,4.437,3.93,5.807,6.967c1.369,2.979,2.054,6.491,2.054,10.541V1064.086 M1498.096,1061.406
	c0-4.884-0.983-8.636-2.948-11.256c-1.966-2.62-4.704-3.931-8.218-3.931c-3.455,0-6.164,1.311-8.129,3.931
	c-1.966,2.62-2.979,6.253-3.037,10.898v3.037c0,4.764,0.982,8.486,2.947,11.166c2.024,2.739,4.794,4.109,8.308,4.109
	c3.454,0,6.163-1.28,8.129-3.842c1.905-2.561,2.888-6.223,2.948-10.987V1061.406z"/>
<line fill="#E89E28" stroke="#27AB6D" stroke-width="10" stroke-miterlimit="10" x1="837.605" y1="1022.578" x2="1503.544" y2="1022.578"/>
</svg>
